HIERARCHY
ROOT Hips
{
  OFFSET 5.72205e-005 65.662 3.42586
  CHANNELS 6 Xposition Yposition Zposition Zrotation Xrotation Yrotation
  JOINT Chest
  {
    OFFSET 0 8.7983 -4.7612
    CHANNELS 3 Zrotation Xrotation Yrotation
    JOINT Chest2
    {
      OFFSET 0 8.0291 0.4195
      CHANNELS 3 Zrotation Xrotation Yrotation
      JOINT Chest3
      {
        OFFSET 0 9.9351 -2.2114
        CHANNELS 3 Zrotation Xrotation Yrotation
        JOINT Neck
        {
          OFFSET 0 22.3885 -0.4656
          CHANNELS 3 Zrotation Xrotation Yrotation
          JOINT Head
          {
            OFFSET -0.0001 12.643 3.4389
            CHANNELS 3 Zrotation Xrotation Yrotation
            End Site
            {
              OFFSET 0.0001 17.6655 0.5274
            }
          }
        }
        JOINT LeftCollar
        {
          OFFSET 2.2603 21.606 7.4023
          CHANNELS 3 Zrotation Xrotation Yrotation
          JOINT LeftShoulder
          {
            OFFSET 13.5163 -1.1332 -5.0146
            CHANNELS 3 Zrotation Xrotation Yrotation
            JOINT LeftElbow
            {
              OFFSET -0.0995 -28.05 -0.2431
              CHANNELS 3 Zrotation Xrotation Yrotation
              JOINT LeftWrist
              {
                OFFSET 0.0679 -23.3996 -0.1402
                CHANNELS 3 Zrotation Xrotation Yrotation
                JOINT LeftFinger1
                {
                  OFFSET 0.7932 -9.069 2.5189
                  CHANNELS 3 Zrotation Xrotation Yrotation
                  JOINT LeftFinger11
                  {
                    OFFSET -0.8272 -3.3923 0.5977
                    CHANNELS 3 Zrotation Xrotation Yrotation
                    JOINT LeftFinger12
                    {
                      OFFSET -0.5649 -2.3158 0.4082
                      CHANNELS 3 Zrotation Xrotation Yrotation
                      End Site
                      {
                        OFFSET -0.4919 -1.6479 0.2673
                      }
                    }
                  }
                }
                JOINT LeftFinger2
                {
                  OFFSET 0.9159 -9.2044 0.2193
                  CHANNELS 3 Zrotation Xrotation Yrotation
                  JOINT LeftFinger21
                  {
                    OFFSET 0.0117 -4.1944 -0.0248
                    CHANNELS 3 Zrotation Xrotation Yrotation
                    JOINT LeftFinger22
                    {
                      OFFSET 0.0071 -2.3249 -0.0142
                      CHANNELS 3 Zrotation Xrotation Yrotation
                      End Site
                      {
                        OFFSET -0.1475 -2.0882 0.0028
                      }
                    }
                  }
                }
                JOINT LeftFinger3
                {
                  OFFSET 0.6113 -8.7231 -2.0637
                  CHANNELS 3 Zrotation Xrotation Yrotation
                  JOINT LeftFinger31
                  {
                    OFFSET -0.1927 -3.8059 -0.2383
                    CHANNELS 3 Zrotation Xrotation Yrotation
                    JOINT LeftFinger32
                    {
                      OFFSET -0.1091 -2.1688 -0.1362
                      CHANNELS 3 Zrotation Xrotation Yrotation
                      End Site
                      {
                        OFFSET -0.2358 -1.9176 -0.0906
                      }
                    }
                  }
                }
                JOINT LeftFinger4
                {
                  OFFSET -0.6151 -8.0947 -3.5641
                  CHANNELS 3 Zrotation Xrotation Yrotation
                  JOINT LeftFinger41
                  {
                    OFFSET -0.4882 -2.341 -0.6462
                    CHANNELS 3 Zrotation Xrotation Yrotation
                    JOINT LeftFinger42
                    {
                      OFFSET -0.3575 -1.7167 -0.4742
                      CHANNELS 3 Zrotation Xrotation Yrotation
                      End Site
                      {
                        OFFSET -0.4187 -1.5237 -0.3496
                      }
                    }
                  }
                }
                JOINT LeftFinger0
                {
                  OFFSET -1.42 -1.8761 1.4223
                  CHANNELS 3 Zrotation Xrotation Yrotation
                  JOINT LeftFinger01
                  {
                    OFFSET -1.1471 -3.4929 2.6334
                    CHANNELS 3 Zrotation Xrotation Yrotation
                    JOINT LeftFinger02
                    {
                      OFFSET -0.823 -2.3 1.6571
                      CHANNELS 3 Zrotation Xrotation Yrotation
                      End Site
                      {
                        OFFSET -0.5822 -1.6914 1.1582
                      }
                    }
                  }
                }
              }
            }
          }
        }
        JOINT RightCollar
        {
          OFFSET -2.2603 21.606 7.4023
          CHANNELS 3 Zrotation Xrotation Yrotation
          JOINT RightShoulder
          {
            OFFSET -13.5187 -1.1334 -5.0155
            CHANNELS 3 Zrotation Xrotation Yrotation
            JOINT RightElbow
            {
              OFFSET 0.0994 -28.0499 -0.2431
              CHANNELS 3 Zrotation Xrotation Yrotation
              JOINT RightWrist
              {
                OFFSET -0.0679 -23.3996 -0.1402
                CHANNELS 3 Zrotation Xrotation Yrotation
                JOINT RightFinger1
                {
                  OFFSET -0.7932 -9.0691 2.5189
                  CHANNELS 3 Zrotation Xrotation Yrotation
                  JOINT RightFinger11
                  {
                    OFFSET 0.8272 -3.3923 0.5977
                    CHANNELS 3 Zrotation Xrotation Yrotation
                    JOINT RightFinger12
                    {
                      OFFSET 0.565 -2.3158 0.4082
                      CHANNELS 3 Zrotation Xrotation Yrotation
                      End Site
                      {
                        OFFSET 0.4919 -1.6479 0.2673
                      }
                    }
                  }
                }
                JOINT RightFinger2
                {
                  OFFSET -0.916 -9.2044 0.2193
                  CHANNELS 3 Zrotation Xrotation Yrotation
                  JOINT RightFinger21
                  {
                    OFFSET -0.0117 -4.1944 -0.0248
                    CHANNELS 3 Zrotation Xrotation Yrotation
                    JOINT RightFinger22
                    {
                      OFFSET -0.0071 -2.3249 -0.0142
                      CHANNELS 3 Zrotation Xrotation Yrotation
                      End Site
                      {
                        OFFSET 0.1475 -2.0882 0.0028
                      }
                    }
                  }
                }
                JOINT RightFinger3
                {
                  OFFSET -0.6113 -8.7231 -2.0637
                  CHANNELS 3 Zrotation Xrotation Yrotation
                  JOINT RightFinger31
                  {
                    OFFSET 0.1927 -3.8059 -0.2383
                    CHANNELS 3 Zrotation Xrotation Yrotation
                    JOINT RightFinger32
                    {
                      OFFSET 0.1091 -2.1688 -0.1362
                      CHANNELS 3 Zrotation Xrotation Yrotation
                      End Site
                      {
                        OFFSET 0.2358 -1.9176 -0.0906
                      }
                    }
                  }
                }
                JOINT RightFinger4
                {
                  OFFSET 0.6151 -8.0947 -3.564
                  CHANNELS 3 Zrotation Xrotation Yrotation
                  JOINT RightFinger41
                  {
                    OFFSET 0.4882 -2.341 -0.6462
                    CHANNELS 3 Zrotation Xrotation Yrotation
                    JOINT RightFinger42
                    {
                      OFFSET 0.3574 -1.7166 -0.4742
                      CHANNELS 3 Zrotation Xrotation Yrotation
                      End Site
                      {
                        OFFSET 0.4187 -1.5237 -0.3496
                      }
                    }
                  }
                }
                JOINT RightFinger0
                {
                  OFFSET 1.4199 -1.8761 1.4221
                  CHANNELS 3 Zrotation Xrotation Yrotation
                  JOINT RightFinger01
                  {
                    OFFSET 1.1472 -3.4929 2.6336
                    CHANNELS 3 Zrotation Xrotation Yrotation
                    JOINT RightFinger02
                    {
                      OFFSET 0.8229 -2.3 1.6571
                      CHANNELS 3 Zrotation Xrotation Yrotation
                      End Site
                      {
                        OFFSET 0.5822 -1.6914 1.1582
                      }
                    }
                  }
                }
              }
            }
          }
        }
      }
    }
  }
  JOINT RightHip
  {
    OFFSET -9.412 3.9771 -0.7758
    CHANNELS 3 Zrotation Xrotation Yrotation
    JOINT RightKnee
    {
      OFFSET -0.7531 -40.938 0
      CHANNELS 3 Zrotation Xrotation Yrotation
      JOINT RightAnkle
      {
        OFFSET 0 -40.1986 0
        CHANNELS 3 Zrotation Xrotation Yrotation
        JOINT RightToe
        {
          OFFSET 0 -4.4182 9.239
          CHANNELS 3 Zrotation Xrotation Yrotation
          End Site
          {
            OFFSET 0 0 6.1981
          }
        }
      }
    }
  }
  JOINT LeftHip
  {
    OFFSET 9.4119 3.9773 -0.7758
    CHANNELS 3 Zrotation Xrotation Yrotation
    JOINT LeftKnee
    {
      OFFSET 0.7532 -40.9383 0
      CHANNELS 3 Zrotation Xrotation Yrotation
      JOINT LeftAnkle
      {
        OFFSET 0 -40.1986 0
        CHANNELS 3 Zrotation Xrotation Yrotation
        JOINT LeftToe
        {
          OFFSET 0 -4.4182 9.239
          CHANNELS 3 Zrotation Xrotation Yrotation
          End Site
          {
            OFFSET 0 0 6.1981
          }
        }
      }
    }
  }
}
MOTION
Frames:	5
Frame Time:	0.0333333
1.63357 22.114 5.21417 -8.32827e-008 25.8027 1.40801e-008 0.235854 2.16321 -0.366709 0.486088 4.32482 -0.743126 0.486089 4.32484 -0.743127 -6.35399 -6.91246 -0.619874 -5.01709e-007 -4.46828 1.97633e-008 8.08871 5.86636 14.1974 8.0276 -15.8541 -10.826 -39.4589 -35.2904 -20.9924 8.39674 0.665297 16.2635 -6.80813e-006 -2.59546e-007 1.06391e-007 -1.28419e-007 -8.33293e-007 -8.4225e-007 -2.78299e-015 0 -1.59028e-015 -6.80813e-006 -2.59546e-007 1.06391e-007 -0.0128322 0.00232616 8.49571e-005 -5.66536e-015 -3.18055e-015 7.95139e-016 -6.80813e-006 -2.59546e-007 1.06391e-007 -0.0160489 0.00299404 0.000855647 2.28602e-015 -1.59028e-015 7.95139e-016 -6.80813e-006 -2.59546e-007 1.06391e-007 -0.0125697 0.00311786 0.0028236 8.94531e-016 1.59028e-015 -7.95139e-016 -6.80813e-006 -2.59546e-007 1.06391e-007 -1.28419e-007 -8.33293e-007 -8.4225e-007 -2.78299e-015 0 -1.59028e-015 -9.59003 6.35623 -20.1639 -7.03088 -15.8594 16.1649 39.506 -35.6658 21.1377 -7.59846 1.19149 -16.1547 -1.98785e-015 -1.59028e-015 -0 -1.59028e-015 -8.5121e-007 -0 -1.15654e-007 -8.74675e-007 -8.38413e-007 -1.98785e-015 -1.59028e-015 -0 0.0129443 0.00231253 -8.8246e-005 -1.15645e-007 -1.69989e-008 -8.38417e-007 -1.98785e-015 -1.59028e-015 -0 0.0163234 0.00303189 -0.00087368 1.98785e-015 1.59028e-015 -0 -1.98785e-015 -1.59028e-015 -0 0.0145868 0.00367362 -0.00326502 1.15629e-007 -8.68215e-007 8.38414e-007 -1.98785e-015 -1.59028e-015 -0 -1.59028e-015 -8.5121e-007 -0 -1.15654e-007 -8.74675e-007 -8.38413e-007 -24.2319 -17.8761 -15.0372 -170.676 85.0037 169.281 25.7094 40.5755 -28.1843 -1.42836e-005 6.58507e-006 4.47242e-006 24.2144 -17.8902 15.0145 171.009 85.0107 -169.604 -25.7236 40.5762 28.1886 8.34896e-015 3.18055e-015 2.38542e-015 
1.63357 22.1563 4.94325 1.11913e-007 26.6078 -1.2307e-007 0.237433 1.94702 -0.365533 0.487718 3.89243 -0.73978 0.487718 3.89242 -0.739779 -6.32707 -7.56293 -0.684811 -1.08542e-006 -5.41091 -2.48699e-008 8.13069 6.19753 14.2597 8.02759 -15.8541 -10.8259 -39.7813 -35.4436 -21.1944 8.47507 0.797173 16.1954 -6.95746e-016 0 -7.95139e-016 4.17448e-015 0 7.95139e-016 8.94531e-016 0 -0 -6.95746e-016 0 -7.95139e-016 -0.0128014 0.00232148 8.56849e-005 -1.2921e-015 1.59028e-015 -7.95139e-016 -6.95746e-016 0 -7.95139e-016 -0.0160662 0.00299823 0.000857704 1.09332e-015 1.59028e-015 -7.95139e-016 -6.95746e-016 0 -7.95139e-016 -0.0126023 0.00312401 0.00282832 -2.98177e-016 -3.18055e-015 -7.95139e-016 -6.95746e-016 0 -7.95139e-016 4.17448e-015 0 7.95139e-016 8.94531e-016 0 -0 -9.63944 6.68507 -20.2261 -7.03105 -15.8594 16.1648 39.8263 -35.8175 21.3396 -7.66762 1.32596 -16.0816 1.98785e-016 1.59028e-015 3.18055e-015 -1.39149e-015 1.59028e-015 -1.59028e-015 1.39149e-015 1.59028e-015 3.18055e-015 1.98785e-016 1.59028e-015 3.18055e-015 0.0129551 0.00231801 -8.79042e-005 -1.59028e-015 3.18055e-015 4.77083e-015 1.98785e-016 1.59028e-015 3.18055e-015 0.0163275 0.00303403 -0.000873 4.57205e-015 0 -1.59028e-015 1.98785e-016 1.59028e-015 3.18055e-015 0.0145782 0.0036772 -0.00325983 3.77691e-015 1.59028e-015 -1.59028e-015 1.98785e-016 1.59028e-015 3.18055e-015 -1.39149e-015 1.59028e-015 -1.59028e-015 1.39149e-015 1.59028e-015 3.18055e-015 -24.2409 -18.9515 -15.2534 -170.99 84.72 169.589 25.967 40.5245 -28.3775 -1.48789e-005 1.56507e-006 3.80754e-006 24.223 -18.9649 15.2308 171.299 84.7269 -169.888 -25.9815 40.5244 28.3823 7.95139e-016 -3.18055e-015 -3.18055e-015 
1.63356 22.2003 4.67243 -2.2705e-008 27.4128 4.39139e-008 0.238999 1.73078 -0.364323 0.489342 3.45998 -0.73637 0.489342 3.45998 -0.73637 -6.30081 -8.21342 -0.7496 -2.05774e-006 -6.35449 -5.23915e-007 8.17239 6.52902 14.3216 8.02767 -15.8541 -10.8259 -40.105 -35.5959 -21.3976 8.55348 0.928943 16.1272 6.4177e-006 -3.0945e-006 -2.64391e-006 1.98785e-016 0 7.95139e-016 -1.49089e-015 1.59028e-015 -0 6.4177e-006 -3.0945e-006 -2.64391e-006 -0.0127989 0.00232104 8.6329e-005 2.28602e-015 -1.59028e-015 -1.59028e-015 6.4177e-006 -3.0945e-006 -2.64391e-006 -0.0160741 0.00300015 0.000861636 4.07509e-015 1.59028e-015 -0 6.4177e-006 -3.0945e-006 -2.64391e-006 -0.012594 0.00312218 0.00283112 -9.93923e-017 1.59028e-015 1.59028e-015 6.4177e-006 -3.0945e-006 -2.64391e-006 1.98785e-016 0 7.95139e-016 -1.49089e-015 1.59028e-015 -0 -9.68848 7.01427 -20.2882 -7.03104 -15.8594 16.1648 40.1477 -35.9682 21.5431 -7.73701 1.46035 -16.0084 5.96354e-016 1.59028e-015 -0 9.93923e-016 1.59028e-015 -0 5.96354e-016 1.59028e-015 1.59028e-015 5.96354e-016 1.59028e-015 -0 0.0129789 0.00232318 -8.47996e-005 1.19271e-015 -1.59028e-015 1.59028e-015 5.96354e-016 1.59028e-015 -0 0.0163339 0.0030332 -0.000872473 1.19271e-015 -3.18055e-015 -0 5.96354e-016 1.59028e-015 -0 0.0145931 0.00368128 -0.00326259 5.96354e-016 -1.59028e-015 1.59028e-015 5.96354e-016 1.59028e-015 -0 9.93923e-016 1.59028e-015 -0 5.96354e-016 1.59028e-015 1.59028e-015 -24.2535 -20.0267 -15.471 -171.272 84.436 169.864 26.2241 40.4726 -28.5704 -4.50831e-007 -2.54678e-007 -7.20531e-007 24.2352 -20.0393 15.4484 171.561 84.4428 -170.144 -26.2389 40.4715 28.5756 4.16472e-006 9.55196e-007 -2.161e-006 
1.63355 22.2459 4.40168 -2.20879e-008 28.2175 -7.55127e-008 0.240567 1.51465 -0.3631 0.49099 3.02773 -0.732943 0.490992 3.02774 -0.732945 -6.27526 -8.86444 -0.814201 -7.0571e-007 -7.2989 3.4602e-008 8.2137 6.86035 14.3834 8.02754 -15.8541 -10.826 -40.4297 -35.7472 -21.6024 8.63211 1.0606 16.0588 -6.67619e-006 5.87787e-007 9.65423e-007 -3.77691e-015 0 1.59028e-015 -1.59028e-015 0 7.95139e-016 -6.67619e-006 5.87787e-007 9.65423e-007 -0.0128351 0.00232916 8.43079e-005 5.96354e-016 0 -0 -6.67619e-006 5.87787e-007 9.65423e-007 -0.0160491 0.00299243 0.000858501 1.98785e-016 -3.18055e-015 7.95139e-016 -6.67619e-006 5.87787e-007 9.65423e-007 -0.012601 0.00312268 0.00282826 -8.94531e-016 0 -7.95139e-016 -6.67619e-006 5.87787e-007 9.65423e-007 -3.77691e-015 0 1.59028e-015 -1.59028e-015 0 7.95139e-016 -9.73723 7.34329 -20.3499 -7.03108 -15.8594 16.1648 40.4704 -36.118 21.7479 -7.80663 1.59466 -15.935 -1.17774e-007 -1.72933e-008 -8.38175e-007 -1.17774e-007 -1.68029e-008 -8.38175e-007 -2.38542e-015 -8.50809e-007 -0 -1.17774e-007 -1.72933e-008 -8.38175e-007 0.0129624 0.00231685 -8.66698e-005 1.19271e-015 -1.59028e-015 -0 -1.17774e-007 -1.72933e-008 -8.38175e-007 0.0163313 0.00303699 -0.000872295 8.18139e-007 -1.784e-006 -1.06688e-006 -1.17774e-007 -1.72933e-008 -8.38175e-007 0.0146057 0.00368541 -0.00326737 3.96509e-006 -2.59135e-007 -2.19181e-006 -1.17774e-007 -1.72933e-008 -8.38175e-007 -1.17774e-007 -1.68029e-008 -8.38175e-007 -2.38542e-015 -8.50809e-007 -0 -24.2698 -21.1013 -15.6901 -171.528 84.1518 170.113 26.4808 40.4198 -28.7628 -4.78846e-006 -6.52794e-007 -3.24282e-006 24.2511 -21.1132 15.6676 171.798 84.1584 -170.374 -26.4958 40.4177 28.7684 1.26981e-005 -1.77473e-007 -4.00788e-006 
1.63354 22.293 4.13106 7.42953e-008 29.0218 -2.24242e-007 0.242121 1.29856 -0.361843 0.49263 2.59553 -0.729451 0.49263 2.59554 -0.72945 -6.25036 -9.51544 -0.878686 2.21332e-007 -8.24403 7.11342e-008 8.25475 7.19195 14.4449 8.0276 -15.8541 -10.826 -40.7559 -35.8977 -21.8085 8.71085 1.1922 15.9902 7.95139e-016 1.59028e-015 -0 2.38542e-015 3.18055e-015 -2.38542e-015 6.95746e-016 1.59028e-015 -2.38542e-015 7.95139e-016 1.59028e-015 -0 -0.0128104 0.00232366 8.20719e-005 -1.98785e-016 0 -7.95139e-016 7.95139e-016 1.59028e-015 -0 -0.0160459 0.00299637 0.000856512 -9.93923e-016 1.59028e-015 7.95139e-016 7.95139e-016 1.59028e-015 -0 -0.0125758 0.00312014 0.0028233 -2.98177e-016 0 7.95139e-016 7.95139e-016 1.59028e-015 -0 2.38542e-015 3.18055e-015 -2.38542e-015 6.95746e-016 1.59028e-015 -2.38542e-015 -9.78561 7.67264 -20.4115 -7.03105 -15.8594 16.1648 40.7943 -36.2669 21.9541 -7.87634 1.7289 -15.8615 -4.41391e-032 -1.59028e-015 -1.59028e-015 5.96354e-016 -1.59028e-015 -0 -1.98785e-016 0 -0 -4.41391e-032 -1.59028e-015 -1.59028e-015 0.0129445 0.00231704 -8.68049e-005 -5.96354e-016 -1.59028e-015 -3.18055e-015 -4.41391e-032 -1.59028e-015 -1.59028e-015 0.0163313 0.00303395 -0.000873519 -4.31844e-006 -1.49348e-006 -3.19109e-007 -4.41391e-032 -1.59028e-015 -1.59028e-015 0.0145884 0.00368077 -0.00326489 -3.18055e-015 1.59028e-015 -0 -4.41391e-032 -1.59028e-015 -1.59028e-015 5.96354e-016 -1.59028e-015 -0 -1.98785e-016 0 -0 -24.2899 -22.1752 -15.9109 -171.761 83.8673 170.339 26.7369 40.366 -28.9547 9.01792e-007 -6.95e-008 1.44094e-006 24.2709 -22.1864 15.8884 172.013 83.8738 -170.582 -26.7521 40.363 28.9608 1.19271e-015 3.18055e-015 -1.59028e-015 
